# xmcd CD database generated by RipIT
#
# Track frame offsets:
# 150
# 20573
# 41194
# 60095
# 76891
# 102568
# 108882
# 128102
# 163356
# 185377
# 202470
# 224667
# 242273
# 273453
# 290312
#
# Disc length: 4061 seconds
#
# Revision: 0
# Processed by: cddbd v1.5.2PL0 Copyright (c) Steve Scherf et al.
# Submitted via: RipIT 3.6.0 www.suwald.com/ripit/ripit.html on 2009-06-17 at 18:02
#
DISCID=de0fdb0f
DTITLE=Imperiet - Silver Guld och Misär
DYEAR=2009
DGENRE=
TTITLE0=Var e vargen
TTITLE1=Österns röda ros
TTITLE2=Cafe Cosmopolite
TTITLE3=Dum dum dollar djungel
TTITLE4=Saker som hon gör
TTITLE5=Vykort
TTITLE6=Tennsoldat och eldvakt
TTITLE7=Bibel
TTITLE8=Offret
TTITLE9=Innan himlen faller ner
TTITLE10=Saker som hon gör
TTITLE11=Det e inget under
TTITLE12=Vargen dub
TTITLE13=Rock'n'roll e död
TTITLE14=19hundra80sju
EXTD=
EXTT0=
EXTT1=
EXTT2=
EXTT3=
EXTT4=
EXTT5=
EXTT6=
EXTT7=
EXTT8=
EXTT9=
EXTT10=
EXTT11=
EXTT12=
EXTT13=
EXTT14=
PLAYORDER=
